<svg width="17" height="17" viewBox="0 0 17 17" fill="none" xmlns="http://www.w3.org/2000/svg">
<path d="M8.55273 0.103027C4.11982 0.103027 0.513672 3.70917 0.513672 8.14209C0.513672 12.575 4.11982 16.1812 8.55273 16.1812C12.9856 16.1812 16.5918 12.575 16.5918 8.14209C16.5918 3.70917 12.9856 0.103027 8.55273 0.103027ZM12.0698 8.81197H9.22261V11.6592C9.22261 12.029 8.92256 12.3291 8.55273 12.3291C8.18291 12.3291 7.88285 12.029 7.88285 11.6592V8.81197H5.03564C4.66582 8.81197 4.36576 8.51192 4.36576 8.14209C4.36576 7.77226 4.66582 7.47221 5.03564 7.47221H7.88285V4.625C7.88285 4.25517 8.18291 3.95512 8.55273 3.95512C8.92256 3.95512 9.22261 4.25517 9.22261 4.625V7.47221H12.0698C12.4397 7.47221 12.7397 7.77226 12.7397 8.14209C12.7397 8.51192 12.4397 8.81197 12.0698 8.81197Z" fill="white"/>
</svg>
