<svg xmlns="http://www.w3.org/2000/svg" width="30" height="30" viewBox="0 0 30 30">
  <g id="Wallet" transform="translate(6882 -9590)">
    <circle id="Ellipse_9675" data-name="Ellipse 9675" cx="15" cy="15" r="15" transform="translate(-6882 9590)" fill="#5c6bc0"/>
    <g id="Group_150105" data-name="Group 150105" transform="translate(-6906.843 9549.533)">
      <path id="Path_103119" data-name="Path 103119" d="M45.8,51H36.286a.455.455,0,0,1-.164-.894H45.8a3.136,3.136,0,0,1,.417.026,2.455,2.455,0,0,0-2.779-2.086,1.092,1.092,0,0,0-.108.019l-9.42,1.605c-.127.019-.257.041-.384.067h-.007c-.048.007-.093.019-.142.03a2.447,2.447,0,0,0-1.862,2.425v.9a2.536,2.536,0,0,0-.019.291v7.152a2.386,2.386,0,0,0,2.384,2.384H45.8a2.386,2.386,0,0,0,2.384-2.384V53.381A2.386,2.386,0,0,0,45.8,51Zm-1.769,7.152a1.192,1.192,0,1,1,1.192-1.192A1.191,1.191,0,0,1,44.034,58.149Z" fill="#fff"/>
    </g>
  </g>
</svg>
